#!OML:ASF F:\VICON\USERDATA\INSTALL\rory3\rory3.ASF
:FULLY-SPECIFIED
:DEGREES
19
root -0.6419752836725413 17.683203670834967 -13.638689815899408 -1.4434251713410928 6.873759667474905 -3.886074780741488
lfemur -23.75149373524815 -3.501824276782206 -21.614797986682635
ltibia 40.95960054694761
lfoot -11.770493448433276 -10.71139304339339
ltoes -1.5494360793424402
rfemur -7.638074019281032 -2.109067861983896 27.04960007971789
rtibia 96.09898219985286
rfoot 21.07318365347097 -13.163587860044919
rtoes 16.75528769957672
lowerback 16.497285641361255 1.0708664147480071 2.768765984589477
upperback -0.0810312943617934 2.0672155086433897 1.1520133925428229
thorax -9.314909306352055 0.891517930953763 -0.8248256193138291
lowerneck -18.957094112938254 -5.346233447203205 -1.6914257790619123
upperneck 15.242904182475762 -7.620282112706145 4.051618636700847
head 8.059292829929596 -3.3001633774943206 0.6760134575698125
lclavicle -9.152774339847445e-16 -7.746725139183434e-16
lhumerus -61.08468459399016 -12.545188881431436 100.14098192457654
lradius 104.07298986979939
lwrist 33.45058829796125
lhand -25.856206542779212 0.7974985326453723
lfingers 7.125020000000057
lthumb 0.6846004567303206 30.776111507333685
rclavicle -9.152774339847445e-16 -7.746725139183434e-16
rhumerus -48.454291764413675 14.403487431183397 -101.75298540677781
rradius 104.67298970995884
rwrist -7.877907043840358
rhand -19.72159002324048 40.73908757964961
rfingers 7.125020000000057
rthumb 6.6085599770313035 10.86218764952286
20
root -0.646633214923163 17.474908519565 -12.685890228701599 -1.1420260252044043 6.63226031454453 -2.519608718467231
lfemur -22.372294499709515 -3.797763519914433 -23.298895461057292
ltibia 45.080998918858235
lfoot -17.15248957867879 -7.689816900995311
ltoes 2.0965100648138675
rfemur -13.30770089562047 -3.7861038889492034 23.902404932258893
rtibia 102.40697984232864
rfoot 20.997883706007745 -9.952804036240925
rtoes 15.041689265824779
lowerback 16.84358442334759 1.0303266853965054 0.9001367565176699
upperback 0.15046710622511406 1.6215373637770742 0.8064185324506169
thorax -9.309279333844964 0.7562972140732036 -0.036899578045832326
lowerneck -19.70269059368662 -5.254084256292822 -1.3674709888108474
upperneck 15.087904476578366 -7.553942498628933 3.9693790697038733
head 8.117182437396256 -3.2486040926277644 0.5904328734601846
lclavicle -9.152775159745956e-16 -7.746724997894612e-16
lhumerus -56.908787526497164 -14.232586984702488 100.1769818753987
lradius 104.52998976175591
lwrist 34.90128727926725
lhand -24.961009341551467 0.056301515164708604
lfingers 7.125020000000057
lthumb 1.5492606572760297 30.030412193893127
rclavicle -9.152775159745956e-16 -7.746724997894612e-16
rhumerus -49.23729116922881 13.324788076073016 -101.86498530302357
rradius 101.6549904347325
rwrist -6.520558172247547
rhand -22.246575434986305 37.44369128166227
rfingers 7.125020000000057
rthumb 4.170694571628387 7.504821422413291
21
root -0.39466971276257645 17.192623307462917 -3.4214829199164782 1.9366794071247053 5.430811625002997 2.126857649666046
lfemur -19.988492227022547 -1.4251666538138381 -27.219645343216044
ltibia 46.83804024214597
lfoot -20.627273040824125 -3.104854643993254
ltoes -0.16583366764274476
rfemur -18.810057263076363 -3.618922823703779 19.56898993465518
rtibia 108.24602418915944
rfoot 14.525837467956878 -7.44545279067463
rtoes 17.28457504470407
lowerback 17.177793164490353 1.5589646002395363 -2.1916506749462936
upperback -0.05007328863866603 1.6293327223420582 -0.7480564978299997
thorax -9.557182377594016 0.8575863165562239 0.2591925584569572
lowerneck -19.837073949878977 -5.437996265156299 -1.8749603192614688
upperneck 13.249122286847234 -7.667644656765095 4.587978551941313
head 7.659091922130162 -3.3192839981758917 0.9264764105152794
lclavicle -8.149346168154788e-16 -6.969763502242098e-16
lhumerus -47.7519890207043 -13.172052628120376 97.37998618028783
lradius 106.25735595980278
lwrist 32.73833872269372
lhand -25.385450168217456 6.300729454522216
lfingers 7.125020000000057
lthumb 1.1388809092287648 36.197656247193166
rclavicle -8.149346168154788e-16 -6.969763502242098e-16
rhumerus -44.123906808921475 8.593098858028847 -98.54698458229522
rradius 98.74743993598061
rwrist -12.106204165461078
rhand -20.88995181271874 34.372292285492136
rfingers 7.125020000000057
rthumb 5.479948347023944 8.024758090613075
22
root -0.38190585441315295 17.061283868307143 -6.8951519118861775 2.8074574361041056 4.750311428459028 2.8740587558641146
lfemur -17.53290228466948 -1.047637668622267 -27.941533402992647
ltibia 49.55615371663748
lfoot -24.22517535588687 0.9036157826140805
ltoes -1.887358827104415
rfemur -25.23749396938186 -4.129311069105709 18.42366888608255
rtibia 113.53769987017802
rfoot 11.847575056059986 -6.353458814740443
rtoes 15.189346736965993
lowerback 17.707173209905378 1.4771941596462739 -3.0725980153187393
upperback -0.02062292760238013 1.3417071946624597 -0.8993084193412553
thorax -9.789228445926863 0.7582277062392727 0.7320743324897987
lowerneck -19.974964168154244 -5.347569687712281 -1.8580505652432755
upperneck 12.70280790480885 -7.579901039532101 4.915635203830671
head 7.505199019821621 -3.2490541180377233 1.0424719482819422
lclavicle -5.547338971339858e-16 -4.955024354007758e-16
lhumerus -43.73875176833033 -13.894336612423904 97.36512450748032
lradius 107.1075148233691
lwrist 33.58281465440923
lhand -24.98042433628982 6.2083416922441375
lfingers 7.125020000000058
lthumb 1.5299801552922199 36.10574655922622
rclavicle -5.547338971339858e-16 -4.955024354007758e-16
rhumerus -46.23432928600024 7.849244370347115 -98.52861669365808
rradius 99.68658160629118
rwrist -12.87693648733476
rhand -20.76984464354822 34.81371234487862
rfingers 7.125020000000058
rthumb 5.59555154219581 8.729956859682844
